<svg id="f593d21d-5c1a-4fa2-94a1-e4a8adaada8d" data-name="Calque 1" xmlns="http://www.w3.org/2000/svg" viewBox="0 0 265.76 265.76"><defs><style>.a0f373cb-c38d-40e4-8799-917ad476cd8f{fill:#1a1b39;}.fa6e48c6-9ba9-433d-89af-53d86fa559ec{fill:#f2c741;}.e840730c-171e-40ba-9ac2-9269894f9bb4{fill:none;stroke:#fff;stroke-miterlimit:10;stroke-width:2px;}</style></defs><rect class="a0f373cb-c38d-40e4-8799-917ad476cd8f" width="265.76" height="265.76" rx="19.01"/><path class="fa6e48c6-9ba9-433d-89af-53d86fa559ec" d="M35.3,172.85V94.2h83.47L110.42,105H48v23.63h67.13l-7.29,9.4H48v24.1h71.37L111,172.85Z"/><path class="fa6e48c6-9ba9-433d-89af-53d86fa559ec" d="M168.5,172.85c-24.57,0-43.61-13.52-43.61-39.38,0-28.1,17.63-40.56,52.78-40.56s52.79,12.46,52.79,40.56a27.56,27.56,0,0,1-3.17,13.16H213.77c2.94-3.64,4-8,4-13.16,0-22.11-12.22-29.87-40.09-29.87s-40.09,7.76-40.09,29.87c0,19.75,12.7,28.68,30.92,28.68h35.63l-25.52-23h16.82l37.62,33.74Z"/><line class="e840730c-171e-40ba-9ac2-9269894f9bb4" x1="17.28" y1="16.47" x2="71.28" y2="16.47"/><line class="e840730c-171e-40ba-9ac2-9269894f9bb4" x1="17.28" y1="69.93" x2="17.28" y2="15.93"/><line class="e840730c-171e-40ba-9ac2-9269894f9bb4" x1="17.28" y1="249.29" x2="71.28" y2="249.29"/><line class="e840730c-171e-40ba-9ac2-9269894f9bb4" x1="17.28" y1="195.82" x2="17.28" y2="249.83"/><line class="e840730c-171e-40ba-9ac2-9269894f9bb4" x1="250.57" y1="249.29" x2="196.57" y2="249.29"/><line class="e840730c-171e-40ba-9ac2-9269894f9bb4" x1="250.57" y1="195.82" x2="250.57" y2="249.83"/><line class="e840730c-171e-40ba-9ac2-9269894f9bb4" x1="250.57" y1="16.47" x2="196.57" y2="16.47"/><line class="e840730c-171e-40ba-9ac2-9269894f9bb4" x1="250.57" y1="69.93" x2="250.57" y2="15.93"/></svg>